<svg width="24" height="24" viewBox="0 0 24 24" fill="none" xmlns="http://www.w3.org/2000/svg">
<path d="M17.0898 10.9996H21.9498C21.7921 9.4317 21.2643 7.92365 20.4098 6.59961C19.5444 7.01341 18.7911 7.62909 18.2134 8.39481C17.6356 9.16053 17.2503 10.0539 17.0898 10.9996V10.9996Z" fill="#743EE8"/>
<path d="M6.9098 10.9996C6.74938 10.0539 6.36405 9.16053 5.78628 8.39481C5.20851 7.62909 4.45521 7.01341 3.5898 6.59961C2.73532 7.92365 2.20751 9.4317 2.0498 10.9996H6.9098Z" fill="#743EE8"/>
<path d="M15.07 10.9998C15.2265 9.75066 15.6758 8.55613 16.3813 7.51349C17.0868 6.47085 18.0286 5.60958 19.13 4.9998C17.4958 3.32813 15.326 2.28396 13 2.0498V10.9998H15.07Z" fill="#743EE8"/>
<path d="M8.92963 10.9998H10.9996V2.0498C8.673 2.28179 6.50255 3.3263 4.86963 4.9998C5.97101 5.60958 6.9128 6.47085 7.61832 7.51349C8.32384 8.55613 8.77314 9.75066 8.92963 10.9998V10.9998Z" fill="#743EE8"/>
<path d="M15.07 13H13V21.95C15.3266 21.718 17.4971 20.6735 19.13 19C18.0286 18.3902 17.0868 17.529 16.3813 16.4863C15.6758 15.4437 15.2265 14.2491 15.07 13V13Z" fill="#743EE8"/>
<path d="M3.5898 17.4C4.45314 16.9834 5.20468 16.3668 5.78208 15.6016C6.35947 14.8364 6.74607 13.9445 6.9098 13H2.0498C2.2098 14.61 2.7598 16.11 3.5898 17.4Z" fill="#743EE8"/>
<path d="M17.0898 13C17.2503 13.9457 17.6356 14.8391 18.2134 15.6048C18.7911 16.3705 19.5444 16.9862 20.4098 17.4C21.2643 16.076 21.7921 14.5679 21.9498 13H17.0898V13Z" fill="#743EE8"/>
<path d="M8.92963 13C8.77314 14.2491 8.32384 15.4437 7.61832 16.4863C6.9128 17.529 5.97101 18.3902 4.86963 19C6.50386 20.6717 8.67361 21.7158 10.9996 21.95V13H8.92963Z" fill="#743EE8"/>
</svg>
